<?xml version="1.0" standalone="no"?>
<!DOCTYPE svg PUBLIC "-//W3C//DTD SVG 1.1//EN" "http://www.w3.org/Graphics/SVG/1.1/DTD/svg11.dtd">
<svg width="100mm" height="100mm" viewBox="-50 -50 100 100" xmlns="http://www.w3.org/2000/svg" version="1.1">
<title>OpenSCAD Model</title>
<path d="
M -50,50 L 50,50 L 50,-50 L -50,-50 z
M -22.5,-0 L -22.4556,-1.41279 L -22.3226,-2.82 L -22.1015,-4.21608 L -21.7931,-5.59552 L -21.3988,-6.95288
 L -20.92,-8.2828 L -20.3586,-9.58003 L -19.7169,-10.8395 L -18.9974,-12.0561 L -18.2029,-13.2252 L -17.3365,-14.342
 L -16.4018,-15.4023 L -15.4023,-16.4018 L -14.342,-17.3365 L -13.2252,-18.2029 L -12.0561,-18.9974 L -10.8395,-19.7169
 L -9.58003,-20.3586 L -8.2828,-20.92 L -6.95288,-21.3988 L -5.59552,-21.7931 L -4.21608,-22.1015 L -2.82,-22.3226
 L -1.41279,-22.4556 L 0,-22.5 L 1.41279,-22.4556 L 2.82,-22.3226 L 4.21608,-22.1015 L 5.59552,-21.7931
 L 6.95288,-21.3988 L 8.2828,-20.92 L 9.58003,-20.3586 L 10.8395,-19.7169 L 12.0561,-18.9974 L 13.2252,-18.2029
 L 14.342,-17.3365 L 15.4023,-16.4018 L 16.4018,-15.4023 L 17.3365,-14.342 L 18.2029,-13.2252 L 18.9974,-12.0561
 L 19.7169,-10.8395 L 20.3586,-9.58003 L 20.92,-8.2828 L 21.3988,-6.95288 L 21.7931,-5.59552 L 22.1015,-4.21608
 L 22.3226,-2.82 L 22.4556,-1.41279 L 22.5,-0 L 22.4556,1.41279 L 22.3226,2.82 L 22.1015,4.21608
 L 21.7931,5.59552 L 21.3988,6.95288 L 20.92,8.2828 L 20.3586,9.58003 L 19.7169,10.8395 L 18.9974,12.0561
 L 18.2029,13.2252 L 17.3365,14.342 L 16.4018,15.4023 L 15.4023,16.4018 L 14.342,17.3365 L 13.2252,18.2029
 L 12.0561,18.9974 L 10.8395,19.7169 L 9.58003,20.3586 L 8.2828,20.92 L 6.95288,21.3988 L 5.59552,21.7931
 L 4.21608,22.1015 L 2.82,22.3226 L 1.41279,22.4556 L 0,22.5 L -1.41279,22.4556 L -2.82,22.3226
 L -4.21608,22.1015 L -5.59552,21.7931 L -6.95288,21.3988 L -8.2828,20.92 L -9.58003,20.3586 L -10.8395,19.7169
 L -12.0561,18.9974 L -13.2252,18.2029 L -14.342,17.3365 L -15.4023,16.4018 L -16.4018,15.4023 L -17.3365,14.342
 L -18.2029,13.2252 L -18.9974,12.0561 L -19.7169,10.8395 L -20.3586,9.58003 L -20.92,8.2828 L -21.3988,6.95288
 L -21.7931,5.59552 L -22.1015,4.21608 L -22.3226,2.82 L -22.4556,1.41279 z
" stroke="black" fill="lightgray" stroke-width="0.5"/>
</svg>
